HIERARCHY
ROOT pelvis
{
  OFFSET 0 100 0
  CHANNELS 6 Xposition Yposition Zposition Zrotation Xrotation Yrotation
  JOINT pelvis_right_femur
  {
    OFFSET -10.78128 -3.44521 -0.5502486
    CHANNELS 3 Zrotation Xrotation Yrotation
    JOINT right_femur_tibia
    {
      OFFSET -0.8047443 -44.0398 -0.1307829
      CHANNELS 3 Zrotation Xrotation Yrotation
      JOINT right_tibia_foot
      {
        OFFSET 3.006224 -47.83518 -5
        CHANNELS 3 Zrotation Xrotation Yrotation
        End Site
        {
          OFFSET 0 -5 15
        }
      }
    }
  }
  JOINT pelvis_left_femur
  {
    OFFSET 10.78128 -3.44521 -0.5502486
    CHANNELS 3 Zrotation Xrotation Yrotation
    JOINT left_femur_tibia
    {
      OFFSET 0.8047443 -44.0398 -0.1307829
      CHANNELS 3 Zrotation Xrotation Yrotation
      JOINT left_tibia_foot
      {
        OFFSET -4.370144 -48.10324 -4.275266
        CHANNELS 3 Zrotation Xrotation Yrotation
        End Site
        {
          OFFSET 0 -5 15
        }
      }
    }
  }
  JOINT pelvis_spine1
  {
    OFFSET 0 6.468898 -3.129235
    CHANNELS 3 Zrotation Xrotation Yrotation
    JOINT spine1
    {
      OFFSET 0 23.15396 4.99043
      CHANNELS 3 Zrotation Xrotation Yrotation
      JOINT spine2
      {
        OFFSET 0 20.79997 -5.064912
        CHANNELS 3 Zrotation Xrotation Yrotation
        JOINT neck
        {
          OFFSET 0 14.38658 9.616178
          CHANNELS 3 Zrotation Xrotation Yrotation
          End Site
          {
            OFFSET 0 20 0
          }
        }
      }
      JOINT right_manubrium
      {
        OFFSET -5.722621 16.35077 3.967754
        CHANNELS 3 Zrotation Xrotation Yrotation
        JOINT right_clavicle
        {
          OFFSET -13.16364 1.694482 -4.693211
          CHANNELS 3 Zrotation Xrotation Yrotation
          JOINT right_humerus
          {
            OFFSET -28.5034 -0.3100689 -2.792744
            CHANNELS 3 Zrotation Xrotation Yrotation
            JOINT right_radius
            {
              OFFSET -25.15693 0.02248979 -1.271978
              CHANNELS 3 Zrotation Xrotation Yrotation
              End Site
              {
                OFFSET -15 0 0
              }
            }
          }
        }
      }
      JOINT left_manubrium
      {
        OFFSET 5.722621 16.35077 3.967754
        CHANNELS 3 Zrotation Xrotation Yrotation
        JOINT left_clavicle
        {
          OFFSET 13.16364 1.694482 -4.693211
          CHANNELS 3 Zrotation Xrotation Yrotation
          JOINT left_humerus
          {
            OFFSET 29.39168 -1.063119 -2.237045
            CHANNELS 3 Zrotation Xrotation Yrotation
            JOINT left_radius
            {
              OFFSET 24.59957 -0.9528479 0.9047498
              CHANNELS 3 Zrotation Xrotation Yrotation
              End Site
              {
                OFFSET 15 -0 -0
              }
            }
          }
        }
      }
    }
  }
}
MOTION
Frames: 15
Frame Time: 0.0416666666667
-95.49771 101.4216 198.3825 -0.7463579 3.449563 26.90004 6.021833 -15.90562 16.28626 -0 36.437 -0 -0.931424 -19.65618 -2.750102 -8.181133 0.8993976 -19.89056 -0 6.892318 -0 25.96715 -5.885142 34.27379 -3.703047 -6.801765 9.679904 3.23923 13.98914 -9.171423 1.977133 17.9659 5.339414 1.664777 -26.94689 10.6342 8.202655 -23.88107 12.95758 82.59132 41.5559 -15.14267 -0 0 21.80339 -5.29918 13.48442 3.815902 8.023661 -21.52997 2.90544 -90.09978 4.543097 20.47629 0 0 -13.75336 32.59886 3.414071 -23.28407
-93.80772 101.4474 199.9151 -0.7773107 3.612626 26.50782 6.034147 -16.46879 16.19687 -0 36.44 -0 -1.016026 -20.04704 -2.768429 -8.317196 1.49246 -20.37102 -0 6.644969 -0 25.59519 -6.442513 34.38161 -3.823937 -6.66966 9.480802 3.283914 13.57662 -9.119794 1.973625 18.16279 5.460733 1.754619 -26.98238 10.72501 8.276108 -23.49473 12.81668 82.52918 41.92657 -15.27538 -0 0 21.46537 -4.855307 13.0716 3.542736 8.06167 -21.28794 2.998622 -90.22801 5.595426 20.23524 0 0 -13.75657 32.02124 3.95362 -22.60905
-92.19047 101.4796 201.4151 -0.813744 3.743277 26.15463 6.070562 -17.0487 16.07632 -0 36.37378 -0 -1.11689 -20.32393 -2.782128 -8.411527 2.076858 -20.78408 -0 6.455735 -0 25.17817 -7.008977 34.41703 -3.917304 -6.527961 9.275235 3.326099 13.19793 -9.07212 1.966971 18.34161 5.576928 1.842453 -27.01782 10.79993 8.324267 -23.13846 12.69054 82.50766 42.2033 -15.43118 -0 0 21.13375 -4.486086 12.69196 3.31424 8.086958 -21.07721 3.052247 -90.34899 6.609738 20.03249 0 0 -13.79606 31.40797 4.501793 -21.8923
-90.63497 101.516 202.8959 -0.8606867 3.845079 25.83822 6.136579 -17.65729 15.92723 -0 36.22962 -0 -1.2339 -20.47074 -2.788137 -8.464038 2.645782 -21.12111 -0 6.332525 -0 24.72974 -7.57523 34.38202 -3.981851 -6.377579 9.065551 3.367204 12.85905 -9.030802 1.95711 18.49811 5.688565 1.928985 -27.05836 10.85998 8.347632 -22.81381 12.58164 82.52682 42.38984 -15.60943 -0 0 20.80479 -4.195097 12.35085 3.131753 8.103568 -20.90428 3.069012 -90.45817 7.557741 19.86136 0 0 -13.87465 30.78508 5.037343 -21.16367
-89.12936 101.5539 204.3735 -0.9227321 3.921967 25.55599 6.237304 -18.30618 15.75156 -0 35.99691 -0 -1.366685 -20.47098 -2.782723 -8.475245 3.192331 -21.373 -0 6.283344 -0 24.2647 -8.131398 34.27919 -4.016374 -6.219892 8.854417 3.408514 12.56624 -8.998224 1.943927 18.62807 5.79629 2.014947 -27.10917 10.90631 8.34628 -22.52244 12.49243 82.58732 42.48972 -15.80984 -0 0 20.47398 -3.986535 12.0534 2.996741 8.116016 -20.7763 3.051748 -90.54978 8.409368 19.71377 0 0 -13.99623 30.18179 5.538907 -20.45668
-87.66077 101.5905 205.8664 -1.003698 3.97786 25.30499 6.37701 -19.00579 15.54991 -0 35.66242 -0 -1.51461 -20.30745 -2.761422 -8.446201 3.709797 -21.52981 -0 6.316659 -0 23.79825 -8.667408 34.11135 -4.019675 -6.056903 8.644794 3.451019 12.32614 -8.976743 1.927141 18.72744 5.900848 2.101071 -27.17509 10.93993 8.31951 -22.26626 12.4253 82.69107 42.50529 -16.03319 -0 0 20.13581 -3.866008 11.8046 2.911111 8.129209 -20.70143 3.00299 -90.61664 9.133248 19.58031 0 0 -14.16683 29.6296 5.98577 -19.80751
-86.21518 101.6223 207.3959 -1.106208 4.016144 25.08203 6.558596 -19.76427 15.32054 -0 35.20942 -0 -1.676827 -19.96171 -2.718985 -8.378414 4.191983 -21.58029 -0 6.441971 -0 23.34512 -9.173359 33.88067 -3.990452 -5.891458 8.439914 3.495214 12.14603 -8.968694 1.90618 18.79253 6.003096 2.188066 -27.26013 10.96145 8.265377 -22.04765 12.38267 82.84219 42.43644 -16.28227 -0 0 19.78346 -3.841619 11.60932 2.877644 8.14833 -20.68931 2.924426 -90.65011 9.697193 19.45035 0 0 -14.39589 29.16086 6.358526 -19.25356
-84.77719 101.6453 208.9871 -1.231175 4.039013 24.88375 6.78289 -20.58601 15.05814 -0 34.61663 -0 -1.852375 -19.41334 -2.649373 -8.273729 4.633567 -21.51121 -0 6.670665 -0 22.9184 -9.639836 33.58786 -3.927136 -5.727531 8.243237 3.540865 12.03412 -8.976422 1.880007 18.82012 6.104023 2.276596 -27.36692 10.97066 8.180122 -21.86972 12.36709 83.04802 42.27913 -16.56292 -0 0 19.40834 -3.925337 11.47247 2.900544 8.178674 -20.75169 2.816208 -90.64006 10.06873 19.31229 0 0 -14.69791 28.807 6.639645 -18.83154
-83.32977 101.6545 210.6691 -1.377144 4.046615 24.70666 7.047727 -21.46977 14.75233 -0 33.85728 -0 -2.040376 -18.63902 -2.545837 -8.134213 5.030538 -21.30668 -0 7.017219 -0 22.52811 -10.05815 33.23103 -3.827708 -5.570595 8.058414 3.586707 12.00001 -9.002332 1.846925 18.80777 6.204758 2.367242 -27.49595 10.96609 8.057476 -21.73669 12.38122 83.32034 42.02352 -16.88517 -0 0 18.99962 -4.134682 11.39906 2.986137 8.225403 -20.9031 2.676105 -90.57503 10.21581 19.15406 0 0 -15.09428 28.59608 6.814033 -18.57485
-81.85395 101.6438 212.4764 -1.53945 4.035958 24.54724 7.346773 -22.40605 14.38581 -0 32.89828 -0 -2.240338 -17.61167 -2.401145 -7.962034 5.380747 -20.94739 -0 7.500888 -0 22.17929 -10.42044 32.80446 -3.689459 -5.428101 7.889219 3.630074 12.05511 -9.04894 1.804362 18.75412 6.306548 2.460437 -27.64459 10.94442 7.887826 -21.65425 12.42799 83.67664 41.65182 -17.26442 -0 0 18.54366 -4.494672 11.39429 3.143667 8.293128 -21.16166 2.498481 -90.44256 10.10778 18.96368 0 0 -15.61536 28.5496 6.869837 -18.51021
-80.32851 101.606 214.4495 -1.709172 3.999487 24.40183 7.668069 -23.37366 13.93248 -0 31.70033 -0 -2.452597 -16.29994 -2.208103 -7.759375 5.684584 -20.41008 -0 8.148017 -0 21.86977 -10.71962 32.29731 -3.50872 -5.310035 7.739461 3.666455 12.2132 -9.118908 1.748677 18.65937 6.410659 2.556345 -27.80581 10.8998 7.65728 -21.63005 12.51044 84.14127 41.13581 -17.72233 -0 0 18.02369 -5.03985 11.4634 3.386166 8.38521 -21.54973 2.27309 -90.22974 9.717178 18.7304 0 0 -16.30244 28.67852 6.799876 -18.65323
-78.72984 101.533 216.6367 -1.871891 3.923318 24.26655 7.992525 -24.33529 13.35579 -0 30.21954 -0 -2.678936 -14.66873 -1.960558 -7.528381 5.945773 -19.6676 -0 8.995102 -0 21.58731 -10.94898 31.6925 -3.28056 -5.229493 7.612839 3.688965 12.49072 -9.214987 1.675072 18.52597 6.518126 2.654643 -27.96666 10.82321 7.346718 -21.67419 12.63156 84.74594 40.4343 -18.28696 -0 0 17.4198 -5.815905 11.61114 3.731162 8.502568 -22.09407 1.983751 -89.92411 9.022724 18.4463 0 0 -17.20901 28.97799 6.604265 -19.00253
-77.03199 101.4163 219.0944 -2.006463 3.785192 24.13712 8.293026 -25.23208 12.6088 -0 28.41252 -0 -2.92338 -12.6818 -1.655187 -7.271164 6.172103 -18.69035 -0 10.09269 -0 21.30654 -11.10131 30.96634 -2.99851 -5.203026 7.512712 3.687837 12.9067 -9.339755 1.577784 18.35945 6.629242 2.754164 -28.10652 10.7019 6.931147 -21.79946 12.79363 85.52887 39.49118 -18.99109 -0 0 16.71019 -6.87984 11.84059 4.200812 8.641716 -22.82487 1.607119 -89.51505 8.014355 18.1088 0 0 -18.39977 29.42118 6.294803 -19.53241
-75.20734 101.2492 221.8878 -2.08431 3.552544 24.0085 8.535659 -25.97832 11.63802 -0 26.2471 -0 -3.193031 -10.30831 -1.294422 -6.989814 6.375557 -17.45009 -0 11.50976 -0 20.98638 -11.16711 30.08973 -2.654414 -5.250292 7.441764 3.650118 13.48163 -9.494998 1.45085 18.16939 6.742582 2.852382 -28.19556 10.51951 6.379977 -22.02121 12.99716 86.531 38.23565 -19.86729 -0 0 15.87452 -8.296662 12.15112 4.820554 8.791758 -23.77232 1.112026 -88.9959 6.701091 17.72441 0 0 -19.94493 29.95257 5.901365 -20.18433
-73.22825 101.0307 225.0882 -2.070363 3.181688 23.87466 8.685615 -26.45862 10.39523 -0 23.72165 -0 -3.498578 -7.535486 -0.8907539 -6.686237 6.570637 -15.92803 -0 13.33736 -0 20.5697 -11.13147 29.03264 -2.238652 -5.392086 7.401573 3.560027 14.23466 -9.68048 1.289888 17.97013 6.853396 2.944762 -28.19463 10.25755 5.659448 -22.35624 13.23906 87.78772 36.58743 -20.93772 -0 0 14.9012 -10.12934 12.53537 5.614842 8.930257 -24.95903 0.4604341 -88.36714 5.122005 17.31414 0 0 -21.90536 30.48269 5.479293 -20.85902
